<svg xmlns="http://www.w3.org/2000/svg" width="400" height="340"><linearGradient id="grad1" x1="0%" y1="0%" x2="100%" y2="0%"><stop offset="0%" style="stop-color:#00FFFF;stop-opacity:1" /><stop offset="100%" style="stop-color:#00BFFF;stop-opacity:1" /></linearGradient><path fill="url(#grad1)" d="M279.5698801865219,260.1661890531784C269.50227755321,270.9121840212216,258.82019855614755,277.6829705409411,247.22521852506057,284.4759698082591C235.6302384939736,291.2689690755771,221.69253404365895,302.16411156032683,210,300.9241846570865C198.30746595634105,299.6842577538462,191.45312640305568,282.21967883254774,177.07001426310688,277.03640838881734C162.6869021231581,271.8531379450869,133.61027153466497,279.33063005950703,123.70132716030717,269.82456199470414C113.79238278594937,260.31849392990125,114.25301977487776,234.66636886562873,117.6163480169601,220C120.97967625904245,205.33363113437127,136.60169240715317,195.88656762832161,143.88129661280124,181.82634880093178C151.1609008184493,167.76612997354195,150.27418935298212,142.45620896890912,161.29397325084858,135.638687035661C172.31375714871504,128.8211651024129,193.3002812803785,141.72554084115686,209.99999999999997,140.92121720144303C226.69971871962144,140.1168935617292,251.28895158929322,123.52384568385663,261.4922855685774,130.81274519737806C271.6956195478616,138.1016447108995,263.53024574964604,169.79007181546797,271.2200038757052,184.65461428257163C278.9097620017643,199.5191567496753,306.23918827312946,207.4147375382322,307.63083432493227,220C309.0224803767351,232.5852624617678,289.63748281983385,249.42019408513522,279.5698801865219,260.1661890531784" stroke="none" stroke-width="3"/></svg>